<?xml version="1.0" encoding="utf-8"?>
<!-- Generator: Adobe Illustrator 21.0.2, SVG Export Plug-In . SVG Version: 6.00 Build 0)  -->
<svg version="1.1" id="Ebene_1" xmlns="http://www.w3.org/2000/svg" xmlns:xlink="http://www.w3.org/1999/xlink" x="0px" y="0px"
	 viewBox="0 0 200 100" style="enable-background:new 0 0 200 100;" xml:space="preserve">
<style type="text/css">
	.st0{fill:#FFFFFF;}
	.st1{fill:#E7267A;}
	.st2{fill:#F9EA31;}
	.st3{fill:#48AE4D;}
	.st4{fill:#6BC9F1;}
	.st5{fill:#FFED00;}
</style>
<g>
	<g>
		<path class="st0" d="M24.4,77.9V59.3h10.3v2.1h-6.2v6.2h4.2v2.1h-4.2v8.3H24.4z"/>
		<path class="st0" d="M38.9,77.9V59.3h8.3c1.1,0,2.1,0.4,2.9,1.2c0.8,0.8,1.2,1.8,1.2,2.9v1.1c0,0.9-0.3,1.8-1,2.7
			c-0.6,0.9-1.7,1.3-3.2,1.3h2.1c0.6,0,1.1,0.2,1.5,0.6c0.4,0.4,0.6,0.9,0.6,1.5v7.3h-4.1v-6.2c0-0.6-0.2-1.1-0.6-1.5
			c-0.4-0.4-0.9-0.6-1.5-0.6h-2.1v8.3H38.9z M43.1,67.5h2.1c0.6,0,1.1-0.2,1.5-0.6c0.4-0.4,0.6-0.9,0.6-1.5v-2.1
			c0-0.6-0.2-1-0.6-1.5c-0.4-0.4-0.9-0.6-1.5-0.6h-2.1V67.5z"/>
		<path class="st0" d="M59.6,59.3h4.2c1.1,0,2.1,0.4,2.9,1.2c0.8,0.8,1.2,1.8,1.2,2.9v10.4c0,1.1-0.4,2.1-1.2,2.9
			c-0.8,0.8-1.8,1.2-2.9,1.2h-4.2c-1.1,0-2.1-0.4-2.9-1.2c-0.8-0.8-1.2-1.8-1.2-2.9V63.4c0-1.1,0.4-2.1,1.2-2.9
			C57.5,59.7,58.5,59.3,59.6,59.3z M59.6,63.4v10.4c0,0.6,0.2,1,0.6,1.4c0.4,0.4,0.9,0.6,1.5,0.6c0.6,0,1.1-0.2,1.5-0.6
			c0.4-0.4,0.6-0.9,0.6-1.4V63.4c0-0.6-0.2-1-0.6-1.5c-0.4-0.4-0.9-0.6-1.5-0.6c-0.6,0-1.1,0.2-1.5,0.6
			C59.8,62.3,59.6,62.8,59.6,63.4z"/>
		<path class="st0" d="M78.3,67.5h6.2v6.2c0,1.4-0.4,2.4-1.3,3.1c-0.9,0.7-1.8,1-2.8,1h-4.2c-1.1,0-2.1-0.4-2.9-1.2
			c-0.8-0.8-1.2-1.8-1.2-2.9V63.4c0-1.1,0.4-2.1,1.2-2.9c0.8-0.8,1.8-1.2,2.9-1.2h4.2c2.6,0,4,1.4,4.1,4.1h-2.1
			c-0.2-1.4-0.8-2.1-2.1-2.1h-2.1c-0.6,0-1.1,0.2-1.5,0.6c-0.4,0.4-0.6,0.9-0.6,1.5v10.4c0,0.6,0.2,1.1,0.6,1.5
			c0.4,0.4,0.9,0.6,1.5,0.6c1.3-0.1,2-0.8,2.1-2.1v-4.2h-2.1V67.5z"/>
		<path class="st0" d="M88.6,77.9V59.3h8.3c1.1,0,2.1,0.4,2.9,1.2c0.8,0.8,1.2,1.8,1.2,2.9v10.4c0,1.1-0.4,2.1-1.2,2.9
			c-0.8,0.8-1.8,1.2-2.9,1.2H88.6z M92.7,75.8h2.1c0.6,0,1.1-0.2,1.5-0.6c0.4-0.4,0.6-0.9,0.6-1.4V63.4c0-0.6-0.2-1-0.6-1.5
			c-0.4-0.4-0.9-0.6-1.5-0.6h-2.1V75.8z"/>
		<path class="st0" d="M105.2,77.9V63.4c0-1.1,0.4-2.1,1.2-2.9c0.8-0.8,1.8-1.2,2.9-1.2h4.2c1.1,0,2.1,0.4,2.9,1.2
			c0.8,0.8,1.2,1.8,1.2,2.9v14.5h-4.1v-8.3h-4.2v8.3H105.2z M109.3,67.5h4.2v-4.2c0-0.6-0.2-1-0.6-1.5c-0.4-0.4-0.9-0.6-1.5-0.6
			c-0.6,0-1.1,0.2-1.5,0.6c-0.4,0.4-0.6,0.9-0.6,1.5V67.5z"/>
		<path class="st0" d="M134.2,73.8c-0.2,2.8-1.6,4.1-4.1,4.1h-4.2c-1.1,0-2.1-0.4-2.9-1.2c-0.8-0.8-1.2-1.8-1.2-2.9V63.4
			c0-1.1,0.4-2.1,1.2-2.9c0.8-0.8,1.8-1.2,2.9-1.2h4.2c2.6,0,4,1.4,4.1,4.1h-2.1c-0.2-1.4-0.8-2.1-2.1-2.1H128
			c-0.6,0-1.1,0.2-1.5,0.6c-0.4,0.4-0.6,0.9-0.6,1.5v10.4c0,0.6,0.2,1,0.6,1.4c0.4,0.4,0.9,0.6,1.5,0.6h2.1c1.2,0,1.9-0.7,2.1-2.1
			H134.2z"/>
		<path class="st0" d="M140.4,77.9V59.3h4.1v18.6H140.4z"/>
		<path class="st0" d="M152.8,77.9V61.3h-4.1v-2.1h12.4v2.1h-4.1v16.6H152.8z"/>
		<path class="st0" d="M167.3,77.9v-8.3c-2.8-0.3-4.1-1.7-4.1-4.1v-6.2h4.1v6.2c0,0.6,0.2,1.1,0.6,1.5c0.4,0.4,0.9,0.6,1.5,0.6
			c0.6,0,1.1-0.2,1.5-0.6c0.4-0.4,0.6-0.9,0.6-1.5v-6.2h4.1v6.2c0,2.4-1.4,3.8-4.1,4.1v8.3H167.3z"/>
	</g>
	<g>
		<g>
			<path class="st1" d="M91.7,25.7L83.6,4l22.8,3.8L91.7,25.7z M88.9,8.4l3.9,10.5l7.1-8.6L88.9,8.4z"/>
		</g>
		<g>
			<path class="st2" d="M61.1,46c-4.2-3.8-4.6-10.3-0.7-14.5c3.8-4.2,10.3-4.6,14.5-0.7c4.2,3.8,4.6,10.3,0.7,14.5
				C71.8,49.4,65.3,49.8,61.1,46z M72.6,33.2c-2.8-2.5-7.1-2.3-9.7,0.5c-2.5,2.8-2.3,7.1,0.5,9.7c2.8,2.5,7.1,2.3,9.7-0.5
				C75.6,40.1,75.4,35.8,72.6,33.2z"/>
		</g>
		<g>
			
				<rect x="95.8" y="32.1" transform="matrix(0.7657 -0.6432 0.6432 0.7657 3.2037 76.3589)" class="st3" width="21.1" height="3.5"/>
		</g>
		<polygon class="st4" points="142.3,33.5 140.7,30.4 132.9,34.5 128.8,26.6 125.8,28.2 129.8,36 121.9,40.1 123.5,43.1 131.4,39.1 
			135.4,47 138.5,45.4 134.4,37.5 		"/>
	</g>
	<g>
		<path class="st5" d="M55.8,94c0.1,0.3,0.2,0.6,0.5,0.9c0.2,0.2,0.6,0.4,1,0.4c0.3,0,0.6-0.1,0.7-0.2c0.2-0.1,0.4-0.3,0.5-0.4
			c0.1-0.2,0.2-0.4,0.2-0.6c0-0.2,0.1-0.5,0.1-0.8v-6.1h0.9v6.2c0,0.3,0,0.6-0.1,0.9c-0.1,0.3-0.2,0.6-0.4,0.9
			c-0.2,0.3-0.4,0.5-0.7,0.7c-0.3,0.2-0.7,0.3-1.2,0.3c-0.6,0-1.2-0.2-1.6-0.5c-0.4-0.3-0.7-0.8-0.8-1.3L55.8,94z"/>
		<path class="st5" d="M65.1,96c-0.7,0-1.2-0.1-1.6-0.3c-0.4-0.2-0.7-0.5-1-0.9c-0.2-0.3-0.4-0.7-0.5-1.1c-0.1-0.4-0.1-0.8-0.1-1.1
			v-5.5h0.9v5.4c0,0.4,0,0.7,0.1,1c0.1,0.3,0.2,0.6,0.4,0.9c0.2,0.3,0.4,0.5,0.7,0.6c0.3,0.2,0.7,0.2,1.1,0.2s0.8-0.1,1.1-0.2
			c0.3-0.2,0.5-0.4,0.7-0.6s0.3-0.6,0.4-0.9c0.1-0.3,0.1-0.7,0.1-1v-5.4h0.9v5.5c0,0.4,0,0.7-0.1,1.1c-0.1,0.4-0.3,0.8-0.5,1.1
			c-0.2,0.3-0.6,0.6-1,0.9C66.3,95.9,65.8,96,65.1,96z"/>
		<path class="st5" d="M74.9,94.3L74.9,94.3l2.9-7.2h1.4v8.7h-0.9v-7.6h0l-3.1,7.6h-0.5l-3.1-7.6h0v7.6h-0.9v-8.7H72L74.9,94.3z"/>
		<path class="st5" d="M81.5,87.1H84c0.4,0,0.8,0,1.2,0.1c0.4,0.1,0.7,0.2,0.9,0.4c0.3,0.2,0.5,0.4,0.6,0.7c0.1,0.3,0.2,0.6,0.2,1
			s-0.1,0.7-0.2,1c-0.1,0.3-0.3,0.5-0.6,0.7c-0.3,0.2-0.6,0.3-0.9,0.4c-0.4,0.1-0.8,0.1-1.2,0.1h-1.5v4h-0.9V87.1z M82.4,91h1.5
			c0.7,0,1.2-0.1,1.6-0.4c0.4-0.3,0.5-0.7,0.5-1.2c0-0.5-0.2-0.9-0.6-1.2c-0.4-0.2-0.9-0.4-1.6-0.4h-1.5V91z"/>
		<path class="st5" d="M91.4,95.8h-1l3.8-8.7h0.9l3.7,8.7h-1l-1-2.3h-4.5L91.4,95.8z M92.7,92.7h3.8l-1.9-4.6L92.7,92.7z"/>
		<path class="st5" d="M106.2,94.5L106.2,94.5l0-7.4h0.9v8.7H106l-5.1-7.5h0v7.5h-0.9v-8.7h1.1L106.2,94.5z"/>
		<path class="st5" d="M109.5,87.1h2.9c0.5,0,1.1,0.1,1.6,0.3c0.5,0.2,1,0.5,1.5,0.8c0.4,0.4,0.8,0.8,1.1,1.4
			c0.3,0.5,0.4,1.2,0.4,1.9c0,0.7-0.1,1.4-0.4,1.9c-0.3,0.5-0.6,1-1.1,1.4c-0.4,0.4-0.9,0.6-1.5,0.8c-0.5,0.2-1.1,0.3-1.6,0.3h-2.9
			V87.1z M110.3,95h1.8c0.7,0,1.2-0.1,1.7-0.3c0.5-0.2,0.9-0.5,1.2-0.8c0.3-0.3,0.6-0.7,0.7-1.1c0.2-0.4,0.2-0.9,0.2-1.3
			c0-0.4-0.1-0.9-0.2-1.3c-0.2-0.4-0.4-0.8-0.7-1.1c-0.3-0.3-0.7-0.6-1.2-0.8c-0.5-0.2-1.1-0.3-1.7-0.3h-1.8V95z"/>
		<path class="st5" d="M122.7,95.8h-0.9v-8.7h2.6c0.4,0,0.8,0,1.2,0.1c0.4,0.1,0.7,0.2,0.9,0.4c0.3,0.2,0.5,0.4,0.6,0.7
			s0.2,0.7,0.2,1.1c0,0.3-0.1,0.6-0.2,0.9c-0.1,0.3-0.3,0.5-0.5,0.7c-0.2,0.2-0.4,0.3-0.7,0.5c-0.3,0.1-0.6,0.2-0.9,0.2l2.5,4.1
			h-1.1l-2.4-4.1h-1.5V95.8z M122.7,91h1.5c0.7,0,1.3-0.1,1.6-0.4c0.4-0.3,0.6-0.6,0.6-1.2c0-0.3-0.1-0.5-0.2-0.7
			c-0.1-0.2-0.3-0.4-0.4-0.5c-0.2-0.1-0.4-0.2-0.7-0.3c-0.3-0.1-0.6-0.1-0.9-0.1h-1.6V91z"/>
		<path class="st5" d="M132.4,96c-0.7,0-1.2-0.1-1.6-0.3c-0.4-0.2-0.7-0.5-1-0.9c-0.2-0.3-0.4-0.7-0.5-1.1c-0.1-0.4-0.1-0.8-0.1-1.1
			v-5.5h0.9v5.4c0,0.4,0,0.7,0.1,1c0.1,0.3,0.2,0.6,0.4,0.9s0.4,0.5,0.7,0.6c0.3,0.2,0.7,0.2,1.1,0.2c0.4,0,0.8-0.1,1.1-0.2
			c0.3-0.2,0.5-0.4,0.7-0.6c0.2-0.3,0.3-0.6,0.4-0.9c0.1-0.3,0.1-0.7,0.1-1v-5.4h0.9v5.5c0,0.4,0,0.7-0.1,1.1
			c-0.1,0.4-0.3,0.8-0.5,1.1c-0.2,0.3-0.6,0.6-1,0.9C133.6,95.9,133,96,132.4,96z"/>
		<path class="st5" d="M144.1,94.5L144.1,94.5l0-7.4h0.9v8.7h-1.1l-5.1-7.5h0v7.5h-0.9v-8.7h1.1L144.1,94.5z"/>
	</g>
</g>
</svg>
